# xmcd
# 
# Track frame offsets:
#     150
#     18688
#     39226
#     57566
#     72680
#     85943
#     103285
#     115872
#     137981
#     159597
# 
# Disc length: 2322
# 
# Revision: 0
# Processed by: cddbd v1.5.2PL0 Copyright (c) Steve Scherf et al.
# Submitted via: fre:ac v1.0.17
# 
DISCID=9309100a
DTITLE=Guitar Ray and The Gamblers - Photograph
DYEAR=2013
DGENRE=Blues
TTITLE0=Give it up
TTITLE1=i'm goin', i'm goin'
TTITLE2=Everybody wants to win
TTITLE3=She's mighty fine
TTITLE4=Mary Lou
TTITLE5=You're the one (feat. GNU Quartet)
TTITLE6=Do the dance
TTITLE7=He thinks of you
TTITLE8=i heard that train go by
TTITLE9=Bella bambina
EXTD=
EXTT0=
EXTT1=
EXTT2=
EXTT3=
EXTT4=
EXTT5=
EXTT6=
EXTT7=
EXTT8=
EXTT9=
PLAYORDER=
